<svg
  xmlns="http://www.w3.org/2000/svg"
  width="24"
  height="24"
  viewBox="0 0 24 24"
  fill="none"
  stroke="currentColor"
  stroke-width="2"
  stroke-linecap="round"
  stroke-linejoin="round"
>
  <path d="M12.5 2c3.3 0 4.95 0 5.975 1.025S19.5 5.7 19.5 9v6c0 3.3 0 4.95-1.025 5.975S15.8 22 12.5 22h-1c-3.3 0-4.95 0-5.975-1.025S4.5 18.3 4.5 15V9c0-3.3 0-4.95 1.025-5.975S8.2 2 11.5 2z" />
  <path d="M14 15h2" />
  <path d="M14 18h2" />
  <path d="M15 8a3 3 0 1 1-6 0 3 3 0 0 1 6 0" />
  <path d="M8 15h2" />
  <path d="M8 18h2" />
</svg>
